<?xml version="1.0" encoding="UTF-8"?>
<svg version="1.1" xmlns="http://www.w3.org/2000/svg" width="130" height="30">
<path d="M0 0 C3.70390021 2.02666238 5.65363011 3.48044516 8 7 C8.68090463 12.11470225 8.84702203 16.56882485 6.1875 21.0625 C1.74750247 24.99506924 1.74750247 24.99506924 -1.9609375 25.01953125 C-3.08757813 24.95121094 -4.21421875 24.88289063 -5.375 24.8125 C-10.69878485 24.59681368 -10.69878485 24.59681368 -15.0625 27.5 C-16.0215625 28.7375 -16.0215625 28.7375 -17 30 C-18.32 30 -19.64 30 -21 30 C-20.75 27.75 -20.75 27.75 -20 25 C-19.29875 24.443125 -18.5975 23.88625 -17.875 23.3125 C-15.7513885 21.20758982 -15.7513885 21.20758982 -16.06640625 18.7734375 C-16.31681029 17.02851672 -16.56813376 15.28372768 -16.8203125 13.5390625 C-17.1039717 9.53083474 -16.0369679 7.44177335 -14 4 C-9.79141947 0.05445576 -5.65171477 -0.47895888 0 0 Z M-12 8 C-13.06948565 10.99706929 -13.06948565 10.99706929 -13 14 C-12.01 15.485 -12.01 15.485 -11 17 C-10.67 15.68 -10.34 14.36 -10 13 C-8.68 13 -7.36 13 -6 13 C-6 12.01 -6 11.02 -6 10 C-4.68 9.67 -3.36 9.34 -2 9 C-2 8.01 -2 7.02 -2 6 C-1.01 5.67 -0.02 5.34 1 5 C-4.18615336 2.40692332 -8.2443901 3.92248068 -12 8 Z M2 7 C2 10.63 2 14.26 2 18 C2.66 17.67 3.32 17.34 4 17 C5.33059914 13.00820257 4.81502739 10.73682109 3 7 C2.67 7 2.34 7 2 7 Z M-10 19 C-7.59179639 21.40820361 -6.34977063 21.68097423 -3 22 C-0.73142854 21.15922128 -0.73142854 21.15922128 1 20 C-2.67410785 18.82428549 -6.16929183 18.92633254 -10 19 Z " fill="#183756" transform="translate(26,0)"/>
<path d="M0 0 C1.9375 0.375 1.9375 0.375 4 1 C4.33 1.66 4.66 2.32 5 3 C7.47608101 3.74524194 7.47608101 3.74524194 10 4 C10.33 3.67 10.66 3.34 11 3 C12.66611905 2.957279 14.33382885 2.95936168 16 3 C16.66 3 17.32 3 18 3 C18.33 2.34 18.66 1.68 19 1 C19.99 1 20.98 1 22 1 C22 1.66 22 2.32 22 3 C22.66 3 23.32 3 24 3 C24 3.99 24 4.98 24 6 C23.34 6 22.68 6 22 6 C22 7.32 22 8.64 22 10 C22.66 10 23.32 10 24 10 C24 10.99 24 11.98 24 13 C22.35 13 20.7 13 19 13 C18.67 12.01 18.34 11.02 18 10 C17.67 10.99 17.34 11.98 17 13 C11.39 13 5.78 13 0 13 C0 10.69 0 8.38 0 6 C-0.99 6.495 -0.99 6.495 -2 7 C-2.65772428 10.02934491 -2.65772428 10.02934491 -3 13 C-3.99 13 -4.98 13 -6 13 C-6 9.7 -6 6.4 -6 3 C-4.02 3 -2.04 3 0 3 C0 2.01 0 1.02 0 0 Z M8 5 C7.3185177 6.89179203 7.3185177 6.89179203 7 9 C7.66 9.66 8.32 10.32 9 11 C9 9.02 9 7.04 9 5 C8.67 5 8.34 5 8 5 Z M12 9 C12.66 9.66 13.32 10.32 14 11 C14.33 10.34 14.66 9.68 15 9 C14.01 9 13.02 9 12 9 Z " fill="#FFFFFF" transform="translate(69,7)"/>
<path d="M0 0 C0.99 0 1.98 0 3 0 C3.33 1.32 3.66 2.64 4 4 C5.3921875 3.7525 5.3921875 3.7525 6.8125 3.5 C10 3 10 3 13 3 C13.66257812 2.98839844 14.32515625 2.97679687 15.0078125 2.96484375 C17.00507614 2.93904883 19.00282955 2.96778757 21 3 C22 4 22 4 22.09765625 6.06640625 C22.08605469 6.89011719 22.07445313 7.71382812 22.0625 8.5625 C22.05347656 9.38878906 22.04445313 10.21507812 22.03515625 11.06640625 C22.02355469 11.70449219 22.01195313 12.34257812 22 13 C21.01 13 20.02 13 19 13 C19 11.02 19 9.04 19 7 C18.34 7 17.68 7 17 7 C17 8.98 17 10.96 17 13 C15.68 13 14.36 13 13 13 C13 11.68 13 10.36 13 9 C12.67 10.32 12.34 11.64 12 13 C8 13 4 13 0 13 C0 8.71 0 4.42 0 0 Z " fill="#FFFFFF" transform="translate(94,7)"/>
<path d="M0 0 C1.67542976 0.28604898 3.34385343 0.61781233 5 1 C5.33 2.32 5.66 3.64 6 5 C6.4125 4.175 6.825 3.35 7.25 2.5 C7.8275 1.675 8.405 0.85 9 0 C10.32 0 11.64 0 13 0 C13 4.29 13 8.58 13 13 C11.68 12.67 10.36 12.34 9 12 C6.90178785 12.39938767 6.90178785 12.39938767 5 13 C3 13 1 13 -1 13 C-1.02686553 11.02090602 -1.04633375 9.04171029 -1.0625 7.0625 C-1.07410156 5.96035156 -1.08570313 4.85820312 -1.09765625 3.72265625 C-1 1 -1 1 0 0 Z " fill="#FFFFFF" transform="translate(39,7)"/>
<path d="M0 0 C1.32 0 2.64 0 4 0 C4 4.29 4 8.58 4 13 C-1.6983287 13.94972145 -3.77988807 13.77483806 -9 12 C-9 10.35 -9 8.7 -9 7 C-8.360625 6.87625 -7.72125 6.7525 -7.0625 6.625 C-6.381875 6.41875 -5.70125 6.2125 -5 6 C-4.67 5.34 -4.34 4.68 -4 4 C-3.01 3.67 -2.02 3.34 -1 3 C-0.67 2.01 -0.34 1.02 0 0 Z " fill="#30A6DE" transform="translate(24,6)"/>
<path d="M0 0 C2.5625 0.1875 2.5625 0.1875 4.5625 2.1875 C4.83241906 4.87589385 4.64987357 7.47891936 4.5625 10.1875 C1.9225 10.1875 -0.7175 10.1875 -3.4375 10.1875 C-4.2778457 6.82611721 -4.61468642 4.48362199 -3.4375 1.1875 C-2.4375 0.1875 -2.4375 0.1875 0 0 Z " fill="#FFFFFF" transform="translate(57.4375,9.8125)"/>
<path d="M0 0 C0.78375 0.04125 1.5675 0.0825 2.375 0.125 C4.59038462 5.54038462 4.59038462 5.54038462 3.5 8.5 C3.12875 9.03625 2.7575 9.5725 2.375 10.125 C0.37545254 10.16754356 -1.62541636 10.16580783 -3.625 10.125 C-4.625 9.125 -4.625 9.125 -4.8125 5.6875 C-4.59380609 1.53231566 -4.30444478 0.20497356 0 0 Z " fill="#FFFFFF" transform="translate(121.625,9.875)"/>
</svg>
